HIERARCHY
ROOT Hips
{
	OFFSET -0.001795 -0.223333 0.028219
	CHANNELS 6 Xposition Yposition Zposition Zrotation Yrotation Xrotation 
	JOINT LeftUpLeg
	{
		OFFSET 0.069520 -0.091406 -0.006815
		CHANNELS 3 Zrotation Yrotation Xrotation
		JOINT LeftLeg
		{
			OFFSET 0.034277 -0.375199 -0.004496
			CHANNELS 3 Zrotation Yrotation Xrotation
			JOINT LeftFoot
			{
				OFFSET -0.013596 -0.397961 -0.043693
				CHANNELS 3 Zrotation Yrotation Xrotation
				JOINT LeftToe
				{
					OFFSET 0.026358 -0.055791 0.119288
					CHANNELS 3 Zrotation Yrotation Xrotation
					End Site
					{
						OFFSET 0.000000 0.000000 0.000000
					}
				}
			}
		}
	}
	JOINT RightUpLeg
	{
		OFFSET -0.067670 -0.090522 -0.004320
		CHANNELS 3 Zrotation Yrotation Xrotation
		JOINT RightLeg
		{
			OFFSET -0.038290 -0.382569 -0.008850
			CHANNELS 3 Zrotation Yrotation Xrotation
			JOINT RightFoot
			{
				OFFSET 0.015774 -0.398415 -0.042312
				CHANNELS 3 Zrotation Yrotation Xrotation
				JOINT RightToe
				{
					OFFSET -0.025372 -0.048144 0.123348
					CHANNELS 3 Zrotation Yrotation Xrotation
					End Site
					{
						OFFSET 0.000000 0.000000 0.000000
					}
				}
			}
		}
	}
	JOINT Spine
	{
		OFFSET -0.002533 0.108963 -0.026696
		CHANNELS 3 Zrotation Yrotation Xrotation
		JOINT Spine1
		{
			OFFSET 0.005487 0.135180 0.001092
			CHANNELS 3 Zrotation Yrotation Xrotation
			JOINT Spine2
			{
				OFFSET 0.001457 0.052922 0.025425
				CHANNELS 3 Zrotation Yrotation Xrotation
				JOINT Neck
				{
					OFFSET -0.002778 0.213870 -0.042857
					CHANNELS 3 Zrotation Yrotation Xrotation
					JOINT Head
					{
						OFFSET 0.005152 0.064970 0.051349
						CHANNELS 3 Zrotation Yrotation Xrotation
						End Site
						{
							OFFSET 0.000000 0.000000 0.000000
						}
					}
				}
				JOINT LeftShoulder
				{
					OFFSET 0.078845 0.121749 -0.034090
					CHANNELS 3 Zrotation Yrotation Xrotation
					JOINT LeftArm
					{
						OFFSET 0.090977 0.030469 -0.008868
						CHANNELS 3 Zrotation Yrotation Xrotation
						JOINT LeftForeArm
						{
							OFFSET 0.259612 -0.012772 -0.027456
							CHANNELS 3 Zrotation Yrotation Xrotation
							JOINT LeftHand
							{
								OFFSET 0.249234 0.008986 -0.001171
								CHANNELS 3 Zrotation Yrotation Xrotation
								End Site
								{
									OFFSET 0.000000 0.000000 0.000000
								}
							}
						}
					}
				}
				JOINT RightShoulder
				{
					OFFSET -0.081759 0.118833 -0.038615
					CHANNELS 3 Zrotation Yrotation Xrotation
					JOINT RightArm
					{
						OFFSET -0.096012 0.032551 -0.009143
						CHANNELS 3 Zrotation Yrotation Xrotation
						JOINT RightForeArm
						{
							OFFSET -0.253742 -0.013329 -0.021401
							CHANNELS 3 Zrotation Yrotation Xrotation
							JOINT RightHand
							{
								OFFSET -0.255298 0.007772 -0.005559
								CHANNELS 3 Zrotation Yrotation Xrotation
								End Site
								{
									OFFSET 0.000000 0.000000 0.000000
								}
							}
						}
					}
				}
			}
		}
	}
}
MOTION
Frames: 7
Frame Time: 0.050000
0.000000 0.948213 0.000000 -1.435557 -5.265812 4.024615 6.535071 0.025110 2.130988 -3.338266 0.457966 -8.176553 5.637047 13.449144 14.356442 0.000000 0.000000 0.000000 -2.122366 0.063023 0.326241 2.157768 -0.306713 -5.653740 -2.277308 -9.894424 11.936824 0.000000 0.000000 0.000000 0.677141 0.113242 -2.498711 2.403303 -0.041317 -24.130742 -3.612543 3.493652 25.938957 7.525818 -2.522701 -26.821683 0.000000 0.000000 0.000000 -20.310411 -3.218409 0.626008 -57.349721 -8.140288 -5.243569 -6.281643 -20.724956 2.173812 0.000000 0.000000 0.000000 -7.652437 7.920996 2.443479 14.148373 44.487532 0.863073 -108.448136 37.218999 -44.230758 0.000000 0.000000 0.000000 
-0.000760 0.947164 0.000106 -2.066136 -5.900185 4.931289 7.416488 0.018346 2.631983 -3.533448 0.502807 -10.619224 5.968337 13.990249 15.695420 0.000000 0.000000 0.000000 -1.577783 0.126527 -0.701367 2.157005 -0.302119 -5.699041 -2.309354 -10.098190 12.176893 0.000000 0.000000 0.000000 1.292972 0.180283 -3.636300 2.855703 -0.166114 -24.000340 -3.920224 3.909816 25.600480 8.210018 -2.826715 -27.243410 0.000000 0.000000 0.000000 -20.223151 -2.522942 0.221597 -57.352751 -7.430763 -5.545307 -7.978595 -20.747959 2.484760 0.000000 0.000000 0.000000 -10.442560 8.211744 2.393866 11.066450 45.994405 0.026647 -107.742016 33.506377 -39.200061 0.000000 0.000000 0.000000 
-0.000942 0.947173 0.000053 -1.130015 -4.773788 4.511518 6.634964 -0.003957 1.879175 -3.945564 0.483349 -8.423818 5.788306 13.617399 13.115484 0.000000 0.000000 0.000000 -2.308796 0.099243 -0.024527 1.975619 -0.301753 -5.662464 -2.773544 -10.700622 11.762233 0.000000 0.000000 0.000000 1.112575 0.120498 -2.667415 0.975453 0.399282 -26.402784 -3.606004 2.717988 27.589497 8.554419 -3.344747 -26.392533 0.000000 0.000000 0.000000 -20.679041 -1.950402 0.118495 -55.864767 -6.998148 -5.906473 -8.901028 -21.435382 2.789995 0.000000 0.000000 0.000000 -11.905518 8.385433 2.371715 4.809378 45.347680 -2.141696 -105.837929 28.590182 -32.826214 0.000000 0.000000 0.000000 
-0.001066 0.947035 0.000495 -1.090663 -4.449491 4.947078 6.574615 -0.026151 1.572049 -3.822588 0.475313 -8.737406 5.498434 13.238238 13.646977 0.000000 0.000000 0.000000 -2.132909 0.138760 -0.614803 1.892294 -0.296872 -5.507321 -2.748054 -10.573444 11.563362 0.000000 0.000000 0.000000 1.446247 0.152377 -3.243752 0.788062 0.470309 -27.012404 -3.961902 3.131883 28.011234 9.335636 -3.732823 -26.228595 0.000000 0.000000 0.000000 -20.386903 -1.425285 -0.319419 -56.138562 -6.744175 -6.041355 -9.643199 -21.575256 2.944734 0.000000 0.000000 0.000000 -15.173157 7.764033 1.984576 1.297395 44.517150 -3.036355 -103.892254 25.297347 -27.789774 0.000000 0.000000 0.000000 
-0.001030 0.947738 0.001148 -0.894137 -3.781659 4.963083 6.060825 -0.034219 1.358313 -3.292467 0.443284 -8.614829 5.358122 13.115683 13.955267 0.000000 0.000000 0.000000 -2.251398 0.121212 -0.357423 1.522009 -0.291980 -5.879481 -2.678165 -10.473295 11.988097 0.000000 0.000000 0.000000 1.701418 0.141937 -3.084884 0.433235 0.558298 -27.284265 -4.340965 2.931233 27.919900 9.666737 -3.892721 -26.180642 0.000000 0.000000 0.000000 -19.767977 -0.947226 -0.626094 -55.839854 -5.780153 -6.424023 -11.531093 -22.764016 3.499696 0.000000 0.000000 0.000000 -17.951349 6.658826 1.605844 -2.263838 42.436542 -3.802262 -103.309313 23.686782 -25.814238 0.000000 0.000000 0.000000 
-0.000965 0.948549 0.001954 -0.972243 -3.216688 5.163905 5.976269 -0.050045 1.212138 -2.868101 0.421142 -8.734648 5.126485 12.735366 13.292170 0.000000 0.000000 0.000000 -2.337504 0.111751 -0.205254 1.902849 -0.317857 -6.160639 -2.693901 -10.574385 12.578954 0.000000 0.000000 0.000000 2.120146 0.140187 -3.076768 -0.232185 0.735265 -28.440124 -4.170569 2.704942 28.667139 10.135792 -4.271515 -25.694527 0.000000 0.000000 0.000000 -19.983376 -0.736097 -0.762731 -55.026862 -5.105214 -6.724843 -13.230867 -24.073064 4.095755 0.000000 0.000000 0.000000 -20.769153 6.120470 1.335456 -4.978297 39.288844 -4.085342 -101.510610 22.117109 -23.535966 0.000000 0.000000 0.000000 
-0.000856 0.949061 0.002503 -0.927427 -2.706631 5.209456 6.033456 -0.067447 1.032437 -2.847159 0.416075 -8.827401 4.969879 12.603869 13.795686 0.000000 0.000000 0.000000 -2.258590 0.119095 -0.358936 1.671983 -0.301027 -5.696015 -2.783679 -10.640274 12.406368 0.000000 0.000000 0.000000 2.306481 0.146451 -3.197644 -0.500928 0.794185 -28.453952 -4.411392 2.678118 28.486935 10.464927 -4.428976 -25.601269 0.000000 0.000000 0.000000 -19.827909 -0.151544 -1.176544 -54.741066 -4.548925 -6.901732 -13.760058 -24.708634 4.316090 0.000000 0.000000 0.000000 -22.813504 5.146234 1.055058 -7.985098 36.606297 -4.313411 -99.060499 18.804208 -19.024988 0.000000 0.000000 0.000000 
